<svg id="Capa_1" data-name="Capa 1" xmlns="http://www.w3.org/2000/svg" viewBox="0 0 1263.57 347.27">
    <defs>
        <style>.cls-1{fill:#3d3d3d;}</style>
    </defs>
    <title>Sound</title>
    <path class="cls-1" d="M392.94,539.3c-.44,7.47-3.92,14.06-11.67,17.76-8.07,3.86-15.36,2-22.12-3.51q-62.26-50.71-124.6-101.35Q126.42,364.27,18.25,276.38c-7.43-6-11.47-13.2-9.19-22.79,3.59-15.06,20.17-20.62,32.4-10.78,25.4,20.42,50.61,41.07,75.9,61.63Q249.89,412.18,382.43,519.9C388.46,524.79,392.8,530.3,392.94,539.3Z" transform="translate(-8.43 -226.44)"/><path class="cls-1" d="M120.69,250.37c6,0,10.64,2.87,15.11,6.52q74.67,60.83,149.42,121.54c17.46,14.2,34.95,28.35,52.35,42.62,8.79,7.21,10.91,17.87,5.67,27.06-6.35,11.15-19.92,13.6-30.41,5.19-16.8-13.46-33.43-27.14-50.14-40.72Q186.61,350.72,110.51,288.9c-7.83-6.35-11.55-14-8.78-24A20.13,20.13,0,0,1,120.69,250.37Z" transform="translate(-8.43 -226.44)"/><path class="cls-1" d="M80,339.86c5.45-.22,9.81,2.92,14.09,6.4q82.59,67.22,165.22,134.37c12.19,9.91,24.45,19.73,36.54,29.76,9.55,7.92,11.11,20.39,4,29.51s-19.44,10.3-29.32,2.3Q238.12,516,205.9,489.72q-68.62-55.8-137.25-111.59C58,369.46,55.84,357,63.38,347.5A19,19,0,0,1,80,339.86Z" transform="translate(-8.43 -226.44)"/><path class="cls-1" d="M259.09,554.14a19.46,19.46,0,0,1-11.34,17.36c-7.21,3.5-14.48,2.88-20.78-2.22q-56.07-45.4-112-91A20.49,20.49,0,0,1,112.44,449c7.3-8.75,19-9.72,28.48-2.05q54.71,44.33,109.31,88.79C255.83,540.32,259.13,545.89,259.09,554.14Z" transform="translate(-8.43 -226.44)"/><path class="cls-1" d="M167,226.44A21,21,0,0,1,181,231.29Q236,276.1,291.09,320.9c9.78,8,11.17,20.72,3.59,30-7.36,9-19.09,9.83-28.93,1.86q-54.69-44.35-109.24-88.86c-11.73-9.6-11.24-26.5.67-34.25A19.07,19.07,0,0,1,167,226.44Z" transform="translate(-8.43 -226.44)"/><path class="cls-1" d="M335.9,307.56c-.22,5.6-3.77,12-11.19,15.66-7.17,3.52-14.47,2.95-20.78-2.11-19.2-15.41-38.35-30.87-57.29-46.59a20.66,20.66,0,0,1-2.7-29.6c7.45-8.7,18.89-9.49,28.48-1.76,18.25,14.73,36.39,29.59,54.63,44.34C332.64,292,336,297.55,335.9,307.56Z" transform="translate(-8.43 -226.44)"/><path class="cls-1" d="M70.21,492.27c.33-6.56,3.9-12.92,11.35-16.55C88.8,472.19,96,472.9,102.31,478c19.2,15.41,38.36,30.88,57.3,46.6a20.62,20.62,0,0,1,2.53,29.62c-7.5,8.69-18.81,9.4-28.5,1.58C115.39,541,97.24,526.16,79,511.41,73.4,506.88,70.1,501.29,70.21,492.27Z" transform="translate(-8.43 -226.44)"/><path class="cls-1" d="M390.83,289.24c0,5.08-3.61,11.47-10.93,15.24-7.11,3.67-14.25,2.95-20.81-1.74-5.36-3.83-10.72-7.66-15.94-11.67-9.54-7.33-11.39-20.15-4.36-29.37s18.38-10.54,28.31-3.46c5.21,3.7,10.4,7.43,15.49,11.29C388,273.64,390.81,279.16,390.83,289.24Z" transform="translate(-8.43 -226.44)"/><path class="cls-1" d="M52.53,546.2C42.8,546.21,19.85,529.26,17,520a21.16,21.16,0,0,1,7.43-22.86c6.85-5.1,15.79-5.19,23.28,0,5.72,4,11.43,8,16.9,12.31A20.62,20.62,0,0,1,71.22,533,20.13,20.13,0,0,1,52.53,546.2Z" transform="translate(-8.43 -226.44)"/><path class="cls-1" d="M512.43,550.32q-21.54,0-38-6.65a66.53,66.53,0,0,1-27.1-19.79q-10.68-13.12-15.27-32.45L475,471.74q5.12,16.23,15.36,24.34t24.72,8.11q15.54,0,23.84-6.93t8.3-19.32V466.08q0-10-5.57-15.77A41.65,41.65,0,0,0,527,440.92q-9.09-3.65-19.86-6.93-12-3.83-24.1-8.39a86.59,86.59,0,0,1-22.25-12.3,55.81,55.81,0,0,1-16.33-20.6q-6.18-12.85-6.18-33.1v-7.11q0-34.64,20.57-53.7t58.53-19.05q28.61,0,47.23,14.13t25.33,42.39L549.16,356.5q-4.95-15.67-13.68-23.34a30.49,30.49,0,0,0-20.75-7.65q-14.66,0-22.6,6.38t-7.95,17.68v8.94q0,11.31,6.18,17.59a43.46,43.46,0,0,0,16.33,10q10.16,3.74,21.63,7.57,11.83,4,23.22,8.57a79.13,79.13,0,0,1,20.84,12.3,56.15,56.15,0,0,1,15.18,20.15q5.73,12.4,5.74,31.18v11.49q0,34.46-21.19,53.69T512.43,550.32Z" transform="translate(-8.43 -226.44)"/><path class="cls-1" d="M692.7,550.32q-32,0-49.52-17.5T625.61,483.4v-62q0-31.73,17.57-49t49.52-17.23q31.78,0,49.26,17.23t17.48,49V484q0,31.73-17.48,49.05T692.7,550.32ZM692.53,506q10.07,0,15.62-6.29t5.56-17.59V423.05q0-11.12-5.56-17.32t-15.62-6.2q-9.9,0-15.54,6.2t-5.65,17.32v59.08q0,11.31,5.65,17.59T692.53,506Z" transform="translate(-8.43 -226.44)"/><path class="cls-1" d="M838.54,358.33V486.5q0,10.39,5.3,16T859.37,508q10.07,0,15.28-5.83t5.21-16.6l2.47,29.72q-4.43,15.51-14.3,25.26T843,550.32q-24.54,0-37.34-16.14t-12.8-46.76V358.33Zm41.32,189.25V358.33h45.55V547.58Z" transform="translate(-8.43 -226.44)"/><path class="cls-1" d="M966.9,547.58V358.33H1013V547.58Zm89,0V423.24q0-11.49-5.65-17.51t-16.25-6q-10.23,0-15.62,6.11t-5.38,17.6l-3.71-32.09q6.88-17.5,17.83-26.8t26.48-9.3q23,0,35.58,16.41t12.62,46.13V547.58Z" transform="translate(-8.43 -226.44)"/><path class="cls-1" d="M1187.43,550.5q-23.31,0-36-17.41T1138.69,484V422.32q0-32.08,12.72-49.5t36-17.41q13.23,0,24.45,9t17.92,25.44l-3.71,32.82a30.31,30.31,0,0,0-2.47-13,18.49,18.49,0,0,0-7.06-8,20.86,20.86,0,0,0-11.12-2.83q-10.07,0-15.72,7.11T1184.07,426v54.7q0,12.4,5.65,19.33t15.72,6.92a21.39,21.39,0,0,0,11.12-2.73,17.92,17.92,0,0,0,7.06-7.93,29.33,29.33,0,0,0,2.47-12.67l2.48,34.28q-5.13,15.32-15.89,24A39.13,39.13,0,0,1,1187.43,550.5Zm38.66-2.92V282.48H1272v265.1Z" transform="translate(-8.43 -226.44)"/>
</svg>