<svg id="Capa_1" data-name="Capa 1" xmlns="http://www.w3.org/2000/svg" viewBox="0 0 550.66 497.31">
    <defs>
        <style>.cls-1{fill:#f2f2f2;}</style>
    </defs>
    <title>Sound_icon</title>
    <path class="cls-1" d="M577.3,573.53c-.64,10.69-5.61,20.14-16.71,25.44-11.56,5.52-22,2.84-31.68-5Q439.74,521.31,350.47,448.8,195.61,322.88,40.7,197c-10.63-8.63-16.42-18.9-13.15-32.64,5.14-21.56,28.88-29.53,46.4-15.44,36.37,29.25,72.48,58.82,108.69,88.26Q372.42,391.5,562.25,545.75C570.88,552.76,577.09,560.64,577.3,573.53Z" transform="translate(-26.64 -125.49)"/><path class="cls-1" d="M187.4,159.76c8.56,0,15.24,4.11,21.65,9.33Q316,256.2,423,343.16c25,20.33,50.06,40.59,75,61,12.58,10.33,15.62,25.6,8.12,38.76-9.1,16-28.52,19.48-43.55,7.44-24.06-19.28-47.88-38.87-71.8-58.32q-109-88.59-217.94-177.12c-11.2-9.09-16.53-20-12.57-34.33A28.81,28.81,0,0,1,187.4,159.76Z" transform="translate(-26.64 -125.49)"/><path class="cls-1" d="M129.1,287.91c7.8-.31,14.05,4.19,20.17,9.18q118.28,96.24,236.61,192.42c17.45,14.2,35,28.26,52.33,42.62,13.68,11.34,15.9,29.21,5.68,42.26-10.4,13.27-27.84,14.75-42,3.29q-46.31-37.48-92.46-75.16-98.27-79.9-196.54-159.8c-15.27-12.41-18.35-30.22-7.55-43.86C111.21,291.45,118.85,287.51,129.1,287.91Z" transform="translate(-26.64 -125.49)"/><path class="cls-1" d="M385.61,594.78c-.51,10.49-5.58,19.7-16.25,24.87-10.31,5-20.73,4.12-29.75-3.18q-80.31-65-160.34-130.39c-13-10.65-14.15-29.28-3.68-41.81s27.23-13.91,40.79-2.93q78.35,63.48,156.54,127.14C380.94,575,385.67,583,385.61,594.78Z" transform="translate(-26.64 -125.49)"/><path class="cls-1" d="M253.76,125.49c8.62.09,14.63,2.6,20,7Q352.6,196.6,431.44,260.77c14,11.44,16,29.67,5.14,42.88-10.54,12.83-27.35,14.09-41.43,2.67q-78.31-63.51-156.44-127.26c-16.8-13.73-16.1-37.94,1-49A27.42,27.42,0,0,1,253.76,125.49Z" transform="translate(-26.64 -125.49)"/><path class="cls-1" d="M495.6,241.66c-.31,8-5.4,17.22-16,22.43-10.28,5.05-20.72,4.23-29.76-3-27.5-22.06-54.93-44.2-82.05-66.71A29.58,29.58,0,0,1,363.91,152c10.68-12.46,27.06-13.59,40.78-2.52,26.14,21.09,52.13,42.37,78.24,63.49C490.94,219.41,495.81,227.32,495.6,241.66Z" transform="translate(-26.64 -125.49)"/><path class="cls-1" d="M115.12,506.19c.47-9.41,5.59-18.51,16.25-23.71,10.37-5.05,20.72-4,29.72,3.2,27.5,22.07,54.93,44.22,82.06,66.73a29.53,29.53,0,0,1,3.62,42.41C236,607.27,219.84,608.29,206,597.09c-26.14-21.1-52.13-42.37-78.25-63.5C119.69,527.1,115,519.1,115.12,506.19Z" transform="translate(-26.64 -125.49)"/><path class="cls-1" d="M574.27,215.43c0,7.27-5.17,16.42-15.65,21.82-10.19,5.25-20.4,4.23-29.81-2.5-7.67-5.48-15.34-11-22.82-16.7-13.66-10.49-16.3-28.85-6.24-42.06s26.32-15.1,40.54-5c7.45,5.31,14.89,10.64,22.18,16.17C570.24,193.09,574.24,201,574.27,215.43Z" transform="translate(-26.64 -125.49)"/><path class="cls-1" d="M89.8,583.41C75.86,583.42,43,559.15,39,545.86a30.3,30.3,0,0,1,10.64-32.74c9.81-7.3,22.61-7.42,33.34,0,8.2,5.68,16.37,11.44,24.19,17.63a29.51,29.51,0,0,1,9.45,33.71A28.84,28.84,0,0,1,89.8,583.41Z" transform="translate(-26.64 -125.49)"/>
</svg>